<svg xmlns="http://www.w3.org/2000/svg" width="138" height="138" viewBox="0 0 23 23"><path d="M1 1h7v7h-7zM12 1h2v2h-1v-1h-1zM15 1h7v7h-7zM2 2v5h5v-5zM16 2v5h5v-5zM3 3h3v3h-3zM9 3h2v1h-1v1h1v-1h1v2h1v1h-1v2h1v1h1v1h1v2h-1v1h1v-1h2v-1h1v-1h1v-1h-1v1h-2v-1h-1v-1h5v2h1v2h-3v2h-3v2h1v-1h1v1h1v2h-2v-1h-2v-3h-1v-2h-1v2h1v1h-3v-1h-1v-2h1v1h1v-2h2v-1h-1v-1h-1v-1h-2zM12 3h1v1h-1zM17 3h3v3h-3zM13 4h1v2h-1zM10 6v2h1v-2zM13 7h1v1h-1zM1 9h1v1h-1zM3 9h5v1h-1v1h1v1h-2v-2h-1v2h-2zM10 10h1v1h-1zM21 10h1v1h-1zM1 11h1v2h2v1h-3zM9 11h1v1h-1zM8 12h1v1h-1zM5 13h1v1h-1zM7 13h1v1h-1zM1 15h7v7h-7zM18 15h1v1h1v-1h1v1h1v2h-1v-1h-3zM2 16v5h5v-5zM9 16h1v2h1v-1h2v1h-1v1h-2v1h-1zM3 17h3v3h-3zM13 18h1v1h2v1h-1v1h-2v1h-4v-1h1v-1h3zM19 18h1v3h-1v1h-1v-1h-1v-1h1v-1h1zM15 21h2v1h-2zM20 21h1v1h-1z"/></svg>